<svg width="10" height="14" viewBox="0 0 10 14" fill="none" xmlns="http://www.w3.org/2000/svg">
<path d="M4.41675 12.25V11.6258C3.44484 11.4853 2.5561 10.9993 1.91331 10.2569C1.27053 9.51447 0.916739 8.56533 0.916748 7.58331V4.66665C0.916748 4.13042 1.02237 3.59944 1.22757 3.10402C1.43278 2.60861 1.73356 2.15847 2.11273 1.77929C2.4919 1.40012 2.94204 1.09934 3.43746 0.894138C3.93287 0.688932 4.46385 0.583313 5.00008 0.583313C5.53631 0.583313 6.06729 0.688932 6.56271 0.894138C7.05812 1.09934 7.50826 1.40012 7.88744 1.77929C8.26661 2.15847 8.56738 2.60861 8.77259 3.10402C8.9778 3.59944 9.08342 4.13042 9.08342 4.66665V7.58331C9.08343 8.56533 8.72963 9.51447 8.08685 10.2569C7.44407 10.9993 6.55532 11.4853 5.58342 11.6258V12.25H7.91675V13.4166H2.08341V12.25H4.41675ZM5.00008 1.74998C4.22653 1.74998 3.48467 2.05727 2.93769 2.60425C2.39071 3.15123 2.08341 3.8931 2.08341 4.66665V7.58331C2.08341 8.35686 2.39071 9.09873 2.93769 9.64571C3.48467 10.1927 4.22653 10.5 5.00008 10.5C5.77363 10.5 6.5155 10.1927 7.06248 9.64571C7.60946 9.09873 7.91675 8.35686 7.91675 7.58331V4.66665C7.91675 3.8931 7.60946 3.15123 7.06248 2.60425C6.5155 2.05727 5.77363 1.74998 5.00008 1.74998V1.74998ZM5.00008 5.24998C5.15479 5.24998 5.30316 5.18852 5.41256 5.07913C5.52196 4.96973 5.58342 4.82136 5.58342 4.66665C5.58342 4.51194 5.52196 4.36356 5.41256 4.25417C5.30316 4.14477 5.15479 4.08331 5.00008 4.08331C4.84537 4.08331 4.697 4.14477 4.5876 4.25417C4.47821 4.36356 4.41675 4.51194 4.41675 4.66665C4.41675 4.82136 4.47821 4.96973 4.5876 5.07913C4.697 5.18852 4.84537 5.24998 5.00008 5.24998V5.24998ZM5.00008 6.41665C4.53595 6.41665 4.09083 6.23227 3.76264 5.90408C3.43446 5.57589 3.25008 5.13078 3.25008 4.66665C3.25008 4.20252 3.43446 3.7574 3.76264 3.42921C4.09083 3.10102 4.53595 2.91665 5.00008 2.91665C5.46421 2.91665 5.90933 3.10102 6.23752 3.42921C6.56571 3.7574 6.75008 4.20252 6.75008 4.66665C6.75008 5.13078 6.56571 5.57589 6.23752 5.90408C5.90933 6.23227 5.46421 6.41665 5.00008 6.41665Z" fill="#47DC96"/>
</svg>
