<svg width="44" height="34" viewBox="0 0 44 34" fill="none" xmlns="http://www.w3.org/2000/svg">
<path d="M42.2899 24.1429V30C42.2899 31.1046 41.3944 32 40.2899 32H3.71014C2.60557 32 1.71014 31.1046 1.71014 30V4C1.71014 2.89543 2.60557 2 3.71014 2H40.2899C41.3944 2 42.2899 2.89543 42.2899 4V16.6429M42.2899 24.1429L34.2505 16.6429M42.2899 24.1429V16.6429M34.2505 16.6429L27.5754 10.4156C26.8071 9.69886 25.6151 9.69885 24.8468 10.4156L2.85863 30.9286M34.2505 16.6429L36.9655 13.8797C37.7755 13.0554 39.1137 13.0872 39.8836 13.9491L42.2899 16.6429" stroke="#C4C4C4" stroke-width="3"/>
<ellipse cx="10.8406" cy="9" rx="3.04348" ry="3" fill="#C4C4C4"/>
</svg>
