<svg xmlns="http://www.w3.org/2000/svg"><symbol id="arrow" viewBox="0 0 16 16"><path d="M5.218 7.333h8.115v1.334H5.218l3.576 3.576-.942.942L2.666 8l5.186-5.185.942.942-3.576 3.576z" fill="#fff"/></symbol><symbol id="call" viewBox="0 0 14 22"><path d="M6 20v-1.07A7.002 7.002 0 0 1 0 12V7a7 7 0 0 1 14 0v5a7.002 7.002 0 0 1-6 6.93V20h4v2H2v-2h4zM7 8a1 1 0 1 1 0-2 1 1 0 0 1 0 2zm0 2a3 3 0 1 0 0-6 3 3 0 0 0 0 6z" fill="#47DC96"/></symbol><symbol id="cam-white" viewBox="0 0 10 14"><path d="M4.417 12.25v-.624a4.084 4.084 0 0 1-3.5-4.043V4.667a4.084 4.084 0 0 1 8.166 0v2.916a4.085 4.085 0 0 1-3.5 4.043v.624h2.334v1.167H2.083V12.25h2.334zM5 1.75a2.917 2.917 0 0 0-2.917 2.917v2.916a2.917 2.917 0 0 0 5.834 0V4.667A2.917 2.917 0 0 0 5 1.75zm0 3.5a.583.583 0 1 0 0-1.167.583.583 0 0 0 0 1.167zm0 1.167a1.75 1.75 0 1 1 0-3.5 1.75 1.75 0 0 1 0 3.5z" fill="#47DC96"/></symbol><symbol id="cam" viewBox="0 0 14 22"><path d="M6 20v-1.07A7.002 7.002 0 0 1 0 12V7a7 7 0 0 1 14 0v5a7.002 7.002 0 0 1-6 6.93V20h4v2H2v-2h4zM7 8a1 1 0 1 1 0-2 1 1 0 0 1 0 2zm0 2a3 3 0 1 0 0-6 3 3 0 0 0 0 6z" fill="#47DC96"/></symbol><symbol id="gift" viewBox="0 0 22 19"><path d="M14 0a4 4 0 0 1 3.464 6.001L22 6v2h-2v10a1 1 0 0 1-1 1H3a1 1 0 0 1-1-1V8H0V6l4.536.001A4 4 0 0 1 11 1.355 3.983 3.983 0 0 1 14 0zm-2 8h-2v10h2V8zM8 2a2 2 0 0 0-.15 3.995L8 6h2V4a2 2 0 0 0-1.697-1.977l-.154-.018L8 2zm6 0a2 2 0 0 0-1.995 1.85L12 4v2h2a2 2 0 0 0 1.995-1.85L16 4a2 2 0 0 0-2-2z" fill="#47DC96"/></symbol><symbol id="image" viewBox="0 0 44 34"><path d="M42.29 24.143V30a2 2 0 0 1-2 2H3.71a2 2 0 0 1-2-2V4a2 2 0 0 1 2-2h36.58a2 2 0 0 1 2 2v12.643m0 7.5l-8.04-7.5m8.04 7.5v-7.5m-8.04 0l-6.675-6.227a2 2 0 0 0-2.728 0L2.859 30.929M34.25 16.643l2.715-2.763a2 2 0 0 1 2.918.07l2.406 2.693" stroke="#C4C4C4" stroke-width="3"/><ellipse cx="10.841" cy="9" rx="3.043" ry="3" fill="#C4C4C4"/></symbol><symbol id="logo" viewBox="0 0 40 40"><rect x="-.716" y="16.811" width="19.532" height="29.297" rx="9.766" transform="rotate(-45 -.716 16.81)" fill="#5EEBE2"/><rect opacity=".6" x="26.906" y="3" width="19.532" height="29.297" rx="9.766" transform="rotate(45 26.906 3)" fill="#3AE3BB"/></symbol><symbol id="more-2-line" viewBox="0 0 20 20"><path d="M10 2.5c-.688 0-1.25.563-1.25 1.25C8.75 4.438 9.313 5 10 5c.688 0 1.25-.563 1.25-1.25 0-.688-.563-1.25-1.25-1.25zM10 15c-.688 0-1.25.563-1.25 1.25 0 .688.563 1.25 1.25 1.25.688 0 1.25-.563 1.25-1.25 0-.688-.563-1.25-1.25-1.25zm0-6.25c-.688 0-1.25.563-1.25 1.25 0 .688.563 1.25 1.25 1.25.688 0 1.25-.563 1.25-1.25 0-.688-.563-1.25-1.25-1.25z" fill="#47DC96"/></symbol><symbol id="noread" viewBox="0 0 13 10"><path d="M1.5 4.5L5 8l7-7" stroke="#47DC96" stroke-width="2"/></symbol><symbol id="phone" viewBox="0 0 18 18"><path d="M18 13.42v3.536a1 1 0 0 1-.93.998c-.437.03-.794.046-1.07.046C7.163 18 0 10.837 0 2c0-.276.015-.633.046-1.07A1 1 0 0 1 1.044 0H4.58a.5.5 0 0 1 .498.45c.023.23.044.413.064.552A13.9 13.9 0 0 0 6.35 5.003c.095.2.033.439-.147.567L4.045 7.112a13.047 13.047 0 0 0 6.844 6.844l1.54-2.154a.462.462 0 0 1 .573-.149 13.9 13.9 0 0 0 4 1.205c.139.02.322.042.55.064a.5.5 0 0 1 .449.498H18z" fill="#47DC96"/></symbol><symbol id="play" viewBox="0 0 64 64"><path fill-rule="evenodd" clip-rule="evenodd" d="M32 64c17.673 0 32-14.327 32-32C64 14.327 49.673 0 32 0 14.327 0 0 14.327 0 32c0 17.673 14.327 32 32 32zm-4.5-22.474l15-8.66a1 1 0 0 0 0-1.732l-15-8.66a1 1 0 0 0-1.5.866v17.32a1 1 0 0 0 1.5.866z" fill="#fff"/></symbol><symbol id="read" viewBox="0 0 16 16"><path d="M.75 8.5l3.5 3.5M7.75 8.5l3.5-3.5M4.75 8.5l3.5 3.5 7-7" stroke="#47DC96" stroke-width="2"/></symbol><symbol id="send" viewBox="0 0 21 21"><path d="M.946 7.315c-.522-.174-.527-.455.01-.634L20.043.319c.529-.176.832.12.684.638l-5.454 19.086c-.15.529-.455.547-.679.045L11 12l6-8-8 6L.946 7.315z" fill="#fff"/></symbol></svg>